<svg width="21" height="20" viewBox="0 0 21 20" fill="none" xmlns="http://www.w3.org/2000/svg">
<g opacity="0.4">
<path d="M9.37346 0.695722L6.81029 5.86696L1.07553 6.69889C0.0471213 6.8473 -0.365027 8.10887 0.380766 8.83144L4.52973 12.8544L3.54842 18.5373C3.37179 19.5645 4.45908 20.3339 5.36973 19.8535L10.5 17.1702L15.6303 19.8535C16.5409 20.33 17.6282 19.5645 17.4516 18.5373L16.4703 12.8544L20.6192 8.83144C21.365 8.10887 20.9529 6.8473 19.9245 6.69889L14.1897 5.86696L11.6265 0.695722C11.1673 -0.226039 9.83664 -0.237757 9.37346 0.695722Z" fill="#FFA900"/>
</g>
<path d="M11 0C10.5312 0 10.0624 0.2305 9.81982 0.695408L7.13459 5.86799L1.12675 6.69623C0.0493652 6.84469 -0.38241 8.10658 0.398897 8.82933L4.74543 12.8533L3.7174 18.5377C3.53235 19.5574 4.66319 20.3348 5.62543 19.8543L11 17.1742V0Z" fill="#FFA900"/>
</svg>
